<?xml version="1.0" standalone="no"?>
<!DOCTYPE svg PUBLIC "-//W3C//DTD SVG 20010904//EN"
 "http://www.w3.org/TR/2001/REC-SVG-20010904/DTD/svg10.dtd">
<svg version="1.0" xmlns="http://www.w3.org/2000/svg"
 width="1000.000000pt" height="379.000000pt" viewBox="0 0 1000.000000 379.000000"
 preserveAspectRatio="xMidYMid meet">

<g transform="translate(0.000000,379.000000) scale(0.100000,-0.100000)"
fill="#000000" stroke="none">
<path d="M57 3777 c4 -7 40 -60 79 -117 201 -297 372 -648 514 -1055 225 -645
331 -876 516 -1121 300 -398 725 -594 1289 -594 263 0 436 37 888 187 325 107
444 133 642 140 124 4 172 1 274 -16 190 -32 392 -107 535 -199 69 -44 246
-182 354 -275 296 -257 504 -374 767 -433 96 -21 399 -30 507 -14 342 49 522
180 845 611 88 118 190 247 227 288 241 269 500 333 849 212 118 -41 197 -82
287 -149 96 -70 301 -277 455 -457 362 -422 542 -580 770 -674 38 -16 82 -33
98 -36 l27 -7 0 1861 0 1861 -4965 0 c-4027 0 -4964 -2 -4958 -13z m5311
-1249 c8 -8 12 -46 12 -103 0 -104 7 -91 -127 -252 l-94 -113 110 0 c129 0
131 -2 131 -98 0 -67 -4 -73 -91 -145 l-56 -47 -236 0 c-129 0 -242 3 -251 6
-13 5 -16 24 -16 103 l1 96 108 135 109 135 -91 3 c-50 1 -97 8 -104 14 -9 7
-13 36 -13 84 0 70 1 75 33 102 17 16 48 43 67 60 l35 31 231 1 c166 0 233 -3
242 -12z m410 0 c8 -8 13 -78 14 -237 l3 -226 2 182 3 181 69 56 68 56 90 0
c56 0 93 -4 101 -12 9 -9 12 -82 12 -268 -1 -305 1 -301 -110 -391 -115 -94
-141 -104 -290 -104 -105 0 -132 4 -170 21 -61 28 -106 77 -119 129 -12 49
-15 494 -3 510 4 6 36 34 70 63 l64 52 92 0 c58 0 96 -4 104 -12z m989 -7 c25
-12 48 -32 57 -50 20 -39 22 -160 2 -186 -13 -18 -11 -21 15 -37 50 -31 61
-67 57 -191 l-3 -110 -65 -59 c-36 -32 -83 -71 -104 -86 l-39 -27 -224 -3
c-163 -3 -228 0 -239 9 -12 9 -14 65 -14 328 l0 317 68 56 67 57 190 0 c166 0
195 -2 232 -18z m748 -4 c8 -13 38 -83 67 -157 l52 -135 4 -166 4 -167 -73
-61 -73 -61 -82 0 c-106 0 -114 3 -115 49 0 20 -3 54 -8 76 -6 36 -8 38 -14
15 -3 -14 -37 -50 -76 -83 l-70 -57 -83 0 c-52 0 -89 5 -96 12 -17 17 -16 301
2 360 7 25 34 99 60 164 45 117 48 121 114 176 l67 57 152 0 c148 1 153 0 168
-22z m749 7 c3 -9 6 -49 6 -89 l0 -74 -60 -52 -60 -52 0 -98 0 -98 58 -3 57
-3 3 -85 2 -85 -71 -57 -72 -58 -213 0 c-247 0 -234 -6 -234 104 0 70 0 70 75
132 l45 36 0 99 0 99 -44 0 c-64 0 -76 16 -76 105 l0 73 71 61 70 61 218 0
c190 0 220 -2 225 -16z m635 -2 c57 -28 75 -63 79 -147 3 -51 0 -83 -11 -103
-14 -28 -13 -30 13 -46 48 -28 60 -70 60 -210 l0 -125 -70 -61 -71 -60 -87 0
c-48 0 -92 4 -99 8 -6 4 -15 50 -20 107 -4 55 -9 87 -11 70 -5 -60 -13 -71
-81 -128 l-70 -57 -90 0 c-79 0 -92 2 -101 19 -6 12 -10 134 -10 325 l0 306
32 27 c17 16 48 43 67 60 l36 32 200 1 c171 0 205 -3 234 -18z m-4977 -78 c3
-3 -8 -42 -26 -87 -29 -74 -34 -82 -65 -90 -52 -13 -65 -4 -47 32 9 16 18 47
22 69 9 54 16 64 60 72 22 4 42 8 45 9 3 0 8 -2 11 -5z m-2134 -153 l3 -101
79 0 79 0 3 102 3 101 45 0 45 0 0 -259 0 -259 -45 0 -45 0 -3 108 -3 107 -79
0 -80 0 0 -105 0 -105 -50 0 -50 0 0 253 c0 140 2 256 4 258 2 2 24 3 48 3
l43 -1 3 -102z m650 54 l3 -45 -125 0 -126 0 0 -60 0 -60 85 0 85 0 -2 -47 -3
-47 -80 0 -80 -1 -3 -57 -3 -58 126 0 125 0 -3 -46 -3 -46 -164 0 -165 0 -3
259 -2 259 167 -3 168 -3 3 -45z m503 49 c7 -4 4 -14 -9 -28 -10 -11 -53 -69
-95 -127 l-77 -107 0 -130 0 -129 -47 1 -47 1 3 126 3 125 -59 79 c-32 44 -76
104 -97 133 l-38 52 60 0 59 0 58 -80 58 -81 47 68 c27 37 54 75 62 83 13 15
100 26 119 14z m784 -259 l0 -258 -45 0 -45 0 -3 249 c-1 137 -1 253 2 259 2
6 23 11 47 10 l44 -1 0 -259z m361 164 l89 -101 40 44 c22 24 63 70 91 102 30
35 56 56 63 52 8 -5 11 -84 11 -265 l0 -258 -47 1 -46 1 2 150 1 150 -27 -30
c-16 -17 -37 -42 -49 -57 -12 -15 -26 -28 -31 -30 -6 -2 -34 23 -62 55 l-50
58 -3 -148 -3 -148 -47 -2 -48 -2 0 258 c0 142 3 261 7 264 13 13 22 6 109
-94z m-946 -368 c0 -17 -52 -146 -63 -158 -7 -6 -28 -13 -47 -15 -40 -3 -40
-7 -11 97 15 57 23 71 42 76 36 10 79 10 79 0z"/>
<path d="M4897 2523 c-10 -9 -8 -135 1 -150 5 -8 44 -13 114 -15 l105 -3 -118
-145 -119 -145 0 -86 c0 -70 3 -88 16 -93 20 -8 448 -8 468 0 13 5 16 22 16
79 0 57 -3 74 -16 79 -9 3 -65 6 -125 6 l-109 0 112 137 113 137 6 85 c4 49 3
94 -2 103 -9 16 -30 18 -233 18 -122 0 -226 -3 -229 -7z m378 -93 c9 -28 -2
-45 -152 -237 -73 -95 -136 -178 -138 -185 -12 -32 10 -37 170 -41 l160 -3
-170 1 -170 0 -3 30 c-2 25 21 60 144 218 87 112 144 194 142 205 -3 15 -21
18 -148 22 l-145 6 152 2 c143 2 152 1 158 -18z"/>
<path d="M5583 2518 c-5 -8 -7 -116 -4 -280 l6 -267 29 -30 c52 -54 184 -80
316 -61 92 13 138 35 168 79 22 34 22 38 20 300 l-3 266 -90 0 -90 0 -5 -233
c-6 -261 -3 -252 -81 -252 -78 0 -78 2 -81 261 l-3 224 -86 3 c-61 2 -89 -1
-96 -10z m133 -517 c58 -52 210 -52 268 0 l31 27 3 211 c2 136 7 211 13 211 7
0 10 -70 7 -208 -3 -232 -8 -251 -73 -278 -45 -18 -185 -18 -229 0 -64 27 -66
36 -64 276 l2 215 6 -213 5 -214 31 -27z"/>
<path d="M6347 2524 c-4 -4 -7 -146 -7 -314 0 -259 2 -309 15 -320 11 -9 68
-11 222 -8 174 3 213 6 240 21 56 30 68 59 68 167 0 113 -16 152 -70 171 l-35
13 21 22 c26 28 36 115 17 168 -9 27 -24 47 -48 60 -31 19 -55 21 -225 24
-105 2 -194 0 -198 -4z m374 -103 c24 -30 27 -145 4 -178 -14 -20 -13 -22 15
-28 47 -10 60 -39 60 -128 0 -69 -3 -81 -25 -102 -24 -24 -28 -25 -185 -25
l-160 0 0 246 0 246 136 -4 c129 -3 137 -4 155 -27z"/>
<path d="M6450 2331 l0 -111 98 1 c126 0 163 13 175 59 12 47 0 114 -24 136
-17 16 -41 20 -135 23 l-114 3 0 -111z m201 22 c7 -19 7 -35 0 -50 -9 -20 -18
-23 -61 -23 l-50 0 0 50 0 50 50 0 c46 0 51 -3 61 -27z"/>
<path d="M6450 2090 l0 -122 144 4 c181 4 186 7 186 113 0 57 -4 78 -19 96
-18 23 -26 24 -165 27 l-146 4 0 -122z m245 16 c4 -19 2 -43 -4 -55 -10 -18
-21 -21 -81 -21 l-70 0 0 55 0 55 75 0 74 0 6 -34z"/>
<path d="M7197 2516 c-7 -8 -38 -79 -67 -158 l-54 -143 -4 -153 c-3 -110 0
-157 8 -167 9 -11 33 -15 80 -15 100 0 100 0 100 86 l0 74 85 0 85 0 0 -74 c0
-58 3 -75 16 -80 23 -9 147 -7 162 3 11 6 13 44 10 177 l-4 169 -53 135 c-29
74 -58 141 -63 148 -16 18 -282 17 -301 -2z m235 -83 c9 -10 35 -63 58 -118
41 -96 43 -105 48 -227 3 -92 1 -128 -7 -128 -7 0 -11 27 -11 80 l0 80 -170 0
-170 0 0 -80 c0 -51 -4 -80 -11 -80 -8 0 -10 42 -7 138 5 134 5 139 46 236 23
55 48 104 55 108 6 4 44 8 83 8 55 0 74 -4 86 -17z"/>
<path d="M7278 2430 c-24 -14 -98 -210 -98 -259 l0 -41 171 0 172 0 -6 48 c-7
55 -81 231 -104 250 -20 14 -111 16 -135 2z m114 -135 c10 -33 21 -68 24 -77
5 -16 -3 -18 -70 -18 -42 0 -76 3 -76 8 0 11 39 132 46 144 3 5 18 8 32 6 23
-3 29 -11 44 -63z"/>
<path d="M7822 2517 c-7 -8 -9 -39 -5 -85 l6 -71 56 -3 56 -3 3 -152 3 -152
-58 -3 -58 -3 -3 -74 c-2 -53 1 -77 10 -82 7 -5 99 -9 205 -9 222 0 223 0 223
81 0 75 -11 89 -70 89 l-50 0 0 155 0 155 54 0 c47 0 54 3 60 23 10 38 7 122
-6 135 -18 18 -411 17 -426 -1z m291 -74 l-73 -4 0 -234 0 -234 73 -4 c39 -1
5 -3 -78 -3 -82 0 -117 2 -77 3 l72 4 0 234 0 234 -72 4 c-40 1 -5 3 77 3 83
0 117 -2 78 -3z"/>
<path d="M8473 2519 c-10 -10 -13 -86 -13 -310 0 -348 -6 -329 100 -329 103 0
100 -3 100 111 l0 99 79 0 c93 0 91 3 91 -115 0 -97 -2 -95 105 -95 96 0 99 5
93 154 -5 131 -20 168 -73 187 l-35 13 23 24 c19 20 22 35 22 102 0 87 -16
122 -71 150 -40 20 -402 28 -421 9z m363 -92 c23 -20 28 -34 32 -85 5 -74 -3
-126 -24 -147 -14 -13 -13 -15 9 -15 13 0 36 -12 51 -26 24 -25 26 -32 24
-113 -1 -68 -2 -73 -5 -26 -2 33 -5 75 -9 93 -8 51 -45 62 -209 62 l-135 0 0
-105 c0 -63 -4 -105 -10 -105 -6 0 -10 88 -10 245 l0 245 129 0 c122 0 132 -1
157 -23z"/>
<path d="M8570 2309 l0 -131 121 4 c151 4 159 10 159 125 0 41 -4 83 -10 93
-15 28 -65 40 -171 40 l-99 0 0 -131z m200 35 c11 -28 3 -75 -14 -86 -6 -4
-30 -8 -53 -8 l-43 0 0 60 0 60 50 0 c45 0 52 -3 60 -26z"/>
</g>
</svg>
